# xmcd CD database file
#
# Track frame offsets:
#	150
#	17156
#	31431
#	45739
#	59784
#	72067
#	89628
#	103708
#	120203
#	131173
#
# Disc length: 1918 seconds
#
# Revision: 4
# Processed by: cddbd v1.5.2PL0 Copyright (c) Steve Scherf et al.
# Submitted via: CDex 1.51
#
DISCID=8c077c0a
DTITLE=Carter Family - Greatest Hits
DYEAR=1997
DGENRE=Country
TTITLE0=Southern Cross
TTITLE1=Maybe You're The One
TTITLE2=Will You Remember Me
TTITLE3=Yankee Don't Go Home
TTITLE4=Right Back Lovin' You Again
TTITLE5=Will The Circle Be Unbroken
TTITLE6=Woman's Touch
TTITLE7=Maybelle
TTITLE8=Baby Ride Easy
TTITLE9=He's A Goner
EXTD=YEAR: 1997
EXTT0=
EXTT1=
EXTT2=
EXTT3=
EXTT4=
EXTT5=
EXTT6=
EXTT7=
EXTT8=
EXTT9=
PLAYORDER=
